HIERARCHY
ROOT Hips
{
	OFFSET 0.000000 0.000000 0.000000
	CHANNELS 6 Xposition Yposition Zposition Zrotation Yrotation Xrotation 
	JOINT LowerBack
	{
		OFFSET 0.000000 0.000000 0.000000
		CHANNELS 3 Zrotation Yrotation Xrotation
		JOINT Spine
		{
			OFFSET 0.028270 2.035590 -0.193380
			CHANNELS 3 Zrotation Yrotation Xrotation
			JOINT Spine1
			{
				OFFSET 0.056720 2.048850 -0.042750
				CHANNELS 3 Zrotation Yrotation Xrotation
				JOINT Neck
				{
					OFFSET 0.000000 0.000000 0.000000
					CHANNELS 3 Zrotation Yrotation Xrotation
					JOINT Neck1
					{
						OFFSET -0.054170 1.746240 0.172020
						CHANNELS 3 Zrotation Yrotation Xrotation
						JOINT Head
						{
							OFFSET 0.104070 1.761360 -0.123970
							CHANNELS 3 Zrotation Yrotation Xrotation
							End Site
							{
								OFFSET 0.000000 0.000000 0.000000
							}
						}
					}
				}
				JOINT LeftShoulder
				{
					OFFSET 0.000000 0.000000 0.000000
					CHANNELS 3 Zrotation Yrotation Xrotation
					JOINT LeftArm
					{
						OFFSET 3.362410 1.200890 -0.311210
						CHANNELS 3 Zrotation Yrotation Xrotation
						JOINT LeftForeArm
						{
							OFFSET 4.983000 -0.000000 -0.000000
							CHANNELS 3 Zrotation Yrotation Xrotation
							JOINT LeftHand
							{
								OFFSET 3.483560 -0.000000 -0.000000
								CHANNELS 3 Zrotation Yrotation Xrotation
								JOINT LeftFingerBase
								{
									OFFSET 0.000000 0.000000 0.000000
									CHANNELS 3 Zrotation Yrotation Xrotation
									JOINT LeftHandIndex1
									{
										OFFSET 0.715260 -0.000000 -0.000000
										CHANNELS 3 Zrotation Yrotation Xrotation
										End Site
										{
											OFFSET 0.000000 0.000000 0.000000
										}
									}
								}
								JOINT LThumb
								{
									OFFSET 0.000000 0.000000 0.000000
									CHANNELS 3 Zrotation Yrotation Xrotation
									End Site
									{
										OFFSET 0.000000 0.000000 0.000000
									}
								}
							}
						}
					}
				}
				JOINT RightShoulder
				{
					OFFSET 0.000000 0.000000 0.000000
					CHANNELS 3 Zrotation Yrotation Xrotation
					JOINT RightArm
					{
						OFFSET -3.136600 1.374050 -0.404650
						CHANNELS 3 Zrotation Yrotation Xrotation
						JOINT RightForeArm
						{
							OFFSET -5.241900 -0.000000 -0.000000
							CHANNELS 3 Zrotation Yrotation Xrotation
							JOINT RightHand
							{
								OFFSET -3.444170 -0.000000 -0.000000
								CHANNELS 3 Zrotation Yrotation Xrotation
								JOINT RightFingerBase
								{
									OFFSET 0.000000 0.000000 0.000000
									CHANNELS 3 Zrotation Yrotation Xrotation
									JOINT RightHandIndex1
									{
										OFFSET -0.622530 -0.000000 -0.000000
										CHANNELS 3 Zrotation Yrotation Xrotation
										End Site
										{
											OFFSET 0.000000 0.000000 0.000000
										}
									}
								}
								JOINT RThumb
								{
									OFFSET 0.000000 0.000000 0.000000
									CHANNELS 3 Zrotation Yrotation Xrotation
									End Site
									{
										OFFSET 0.000000 0.000000 0.000000
									}
								}
							}
						}
					}
				}
			}
		}
	}
}
}
MOTION
Frames: 12
Frame Time: 0.008333
-10.823390 16.832279 2.417541 -67.606078 85.927355 -45.099440 4.374888 -1.365192 5.726792 -0.218649 -1.395037 -1.639183 -7.938263 -1.390357 0.377666 8.160416 3.943965 5.957980 -5.407861 -0.439962 3.194737 0.000000 0.000000 0.000000 -2.926029 -5.154927 0.337642 -60.233362 -22.326562 13.459774 -0.924941 -75.667762 -0.035243 7.593530 -4.216079 -0.313589 -0.204073 0.416156 -0.000000 0.000000 0.000000 0.000000 0.000000 0.000000 0.000000 20.345158 0.034296 0.770973 57.126345 13.598314 -1.598027 2.954527 27.259415 0.009460 0.681488 7.322015 0.040520 0.061412 -0.084643 -0.000000 0.000000 0.000000 0.000000 0.000000 0.000000 0.000000 
-10.661999 16.819301 2.428026 -72.698609 85.557304 -50.316814 4.937909 -1.395748 5.934138 -0.109842 -1.433221 -1.613237 -7.968096 -1.434729 0.355235 8.475957 4.383722 6.087473 -5.419367 -0.439229 3.225885 0.000000 0.000000 0.000000 -3.350301 -5.049497 0.378992 -60.574157 -21.648499 12.477400 -1.001948 -74.461325 -0.038291 8.292869 -4.127219 -0.334533 -0.208742 0.401919 -0.000000 0.000000 0.000000 0.000000 0.000000 0.000000 0.000000 20.708736 0.274687 0.739250 56.792854 14.368902 -2.322800 2.992190 26.098254 0.009572 0.440695 7.581693 0.025611 0.063047 -0.083580 -0.000000 0.000000 0.000000 0.000000 0.000000 0.000000 0.000000 
-10.504340 16.813897 2.439330 -77.923533 85.267936 -55.663445 5.411998 -1.450743 6.165768 -0.017704 -1.490519 -1.580281 -7.990063 -1.498290 0.339972 8.840691 4.810033 6.218265 -5.417330 -0.437795 3.257642 0.000000 0.000000 0.000000 -3.752676 -4.979645 0.416711 -60.955916 -20.957083 11.497287 -1.082086 -73.066061 -0.041983 9.153680 -3.961610 -0.354093 -0.213848 0.385229 -0.000000 0.000000 0.000000 0.000000 0.000000 0.000000 0.000000 21.066038 0.484671 0.698492 56.563833 15.219982 -3.217354 3.025135 24.778843 0.009636 0.158166 7.823365 0.006801 0.064743 -0.082528 -0.000000 0.000000 0.000000 0.000000 0.000000 0.000000 0.000000 
-10.350378 16.815729 2.451910 -83.481652 85.058453 -61.341739 5.786314 -1.524345 6.411922 0.056117 -1.561937 -1.545046 -7.999479 -1.576554 0.321739 9.244330 5.263885 6.364341 -5.393991 -0.435468 3.294233 0.000000 0.000000 0.000000 -4.134736 -4.956182 0.456324 -61.363052 -20.247661 10.541457 -1.162376 -71.486242 -0.046074 10.162211 -3.728153 -0.369871 -0.218858 0.366479 -0.000000 0.000000 0.000000 0.000000 0.000000 0.000000 0.000000 21.371715 0.722562 0.648682 56.481478 16.038556 -4.396025 3.047897 23.380711 0.009606 -0.135501 8.019121 -0.013908 0.066090 -0.081696 -0.000000 0.000000 0.000000 0.000000 0.000000 0.000000 0.000000 
-10.199750 16.824263 2.465986 -89.497947 84.917739 -67.474416 6.050573 -1.608250 6.667157 0.108654 -1.639948 -1.503015 -7.996414 -1.660790 0.319604 9.668381 5.640584 6.491833 -5.357992 -0.432593 3.326101 0.000000 0.000000 0.000000 -4.484376 -4.973131 0.487934 -61.791537 -19.548176 9.635544 -1.239597 -69.728096 -0.050191 11.287595 -3.443959 -0.379967 -0.223056 0.346039 0.000000 0.000000 0.000000 0.000000 0.000000 0.000000 0.000000 21.644197 0.883022 0.590393 56.514640 16.941831 -5.666085 3.062559 21.872104 0.009495 -0.513791 8.188050 -0.041719 0.067805 -0.081100 -0.000000 0.000000 0.000000 0.000000 0.000000 0.000000 0.000000 
-10.052160 16.838698 2.481537 -96.021468 84.823820 -74.112453 6.210778 -1.694375 6.922647 0.141856 -1.717954 -1.460169 -7.975805 -1.745158 0.318118 10.095652 6.019856 6.623659 -5.299556 -0.428911 3.359758 0.000000 0.000000 0.000000 -4.814379 -5.024262 0.522114 -62.226205 -18.859619 8.808472 -1.312875 -67.790551 -0.053952 12.489909 -3.127663 -0.382679 -0.225971 0.324464 0.000000 0.000000 0.000000 0.000000 0.000000 0.000000 0.000000 21.822431 1.070543 0.523694 56.707178 17.758549 -7.173410 3.062158 20.384926 0.009242 -0.918177 8.298030 -0.072029 0.069211 -0.080958 -0.000000 0.000000 0.000000 0.000000 0.000000 0.000000 0.000000 
-9.907087 16.858214 2.498330 -102.955367 84.752370 -81.157115 6.269708 -1.772881 7.173714 0.155816 -1.787045 -1.415422 -7.937322 -1.820231 0.323584 10.506717 6.365659 6.746588 -5.223092 -0.424640 3.391249 0.000000 0.000000 0.000000 -5.122888 -5.098502 0.556328 -62.661833 -18.196918 8.081692 -1.381153 -65.680691 -0.056948 13.715131 -2.801588 -0.377705 -0.227026 0.302224 0.000000 0.000000 0.000000 0.000000 0.000000 0.000000 0.000000 21.905468 1.256394 0.450001 57.039758 18.507032 -8.799895 3.046836 18.957026 0.008842 -1.371525 8.355065 -0.106040 0.070537 -0.081266 -0.000000 0.000000 0.000000 0.000000 0.000000 0.000000 0.000000 
-9.764117 16.882082 2.516081 -110.077333 84.681654 -88.384403 6.232757 -1.833475 7.418238 0.150864 -1.837420 -1.366655 -7.882880 -1.875582 0.344286 10.884526 6.624907 6.843570 -5.137242 -0.420140 3.415390 0.000000 0.000000 0.000000 -5.405716 -5.189199 0.586098 -63.094989 -17.568353 7.466024 -1.443635 -63.413946 -0.058830 14.902058 -2.486530 -0.365542 -0.225716 0.279724 0.000000 0.000000 0.000000 0.000000 0.000000 0.000000 0.000000 21.913522 1.388417 0.371749 57.474223 19.243635 -10.344109 3.019877 17.602696 0.008313 -1.910737 8.376776 -0.146349 0.072186 -0.081909 -0.000000 0.000000 0.000000 0.000000 0.000000 0.000000 0.000000 
-9.622920 16.909623 2.534095 -117.074453 84.594831 -95.480457 6.118877 -1.868604 7.652852 0.131404 -1.862056 -1.317530 -7.811907 -1.904670 0.369428 11.214311 6.857483 6.931075 -5.038416 -0.415352 3.436572 0.000000 0.000000 0.000000 -5.675803 -5.281872 0.618714 -63.516123 -16.974758 6.973983 -1.502419 -60.997063 -0.059375 15.986853 -2.203089 -0.348784 -0.221864 0.257474 0.000000 0.000000 0.000000 0.000000 0.000000 0.000000 0.000000 21.815745 1.542384 0.290554 58.024743 19.859985 -11.862176 2.980781 16.429801 0.007646 -2.456733 8.339873 -0.186058 0.073638 -0.082867 -0.000000 0.000000 0.000000 0.000000 0.000000 0.000000 0.000000 
-9.483017 16.940219 2.551434 -123.647733 84.478273 -102.132964 5.953418 -1.871809 7.865609 0.102345 -1.855488 -1.268692 -7.728188 -1.901711 0.406014 11.482668 7.024289 6.997102 -4.935418 -0.410627 3.451293 0.000000 0.000000 0.000000 -5.938022 -5.368197 0.650244 -63.922163 -16.417033 6.607157 -1.558370 -58.451938 -0.058520 16.915565 -1.956146 -0.328628 -0.215406 0.235699 0.000000 0.000000 0.000000 0.000000 0.000000 0.000000 0.000000 21.636964 1.674236 0.207977 58.646537 20.416901 -13.121750 2.936287 15.427455 0.006899 -3.047306 8.274549 -0.227966 0.075405 -0.083952 -0.000000 0.000000 0.000000 0.000000 0.000000 0.000000 0.000000 
-9.344366 16.973496 2.567426 -129.513215 84.342153 -108.054695 5.750960 -1.841264 8.054608 0.066960 -1.815762 -1.221138 -7.634338 -1.864831 0.452484 11.682323 7.157896 7.046671 -4.828735 -0.405974 3.460727 0.000000 0.000000 0.000000 -6.200982 -5.412772 0.683913 -64.307326 -15.922467 6.382086 -1.616090 -55.775141 -0.056336 17.641220 -1.754079 -0.307767 -0.206702 0.214740 0.000000 0.000000 0.000000 0.000000 0.000000 0.000000 0.000000 21.373782 1.822521 0.123445 59.334969 20.882862 -14.106500 2.890166 14.632584 0.006123 -3.625880 8.184495 -0.267574 0.077270 -0.085068 -0.000000 0.000000 0.000000 0.000000 0.000000 0.000000 0.000000 
-9.207026 17.009395 2.581386 -134.459154 84.202091 -113.039555 5.525081 -1.774569 8.227699 0.027194 -1.739736 -1.175431 -7.535665 -1.791283 0.501892 11.814118 7.246766 7.084935 -4.726267 -0.401774 3.466106 0.000000 0.000000 0.000000 -6.461748 -5.463157 0.718680 -64.662547 -15.422088 6.244347 -1.673398 -53.033525 -0.052926 18.108021 -1.600333 -0.288002 -0.195541 0.194757 0.000000 0.000000 0.000000 0.000000 0.000000 0.000000 0.000000 21.062145 1.964355 0.043576 60.055390 21.301451 -14.774514 2.850667 14.027714 0.005411 -4.118788 8.060283 -0.298779 0.079104 -0.086031 -0.000000 0.000000 0.000000 0.000000 0.000000 0.000000 0.000000 
